# xmcd
#
# Track frame offsets: 
#        183
#        29595
#        46395
#        79545
#        111720
#        149145
#        175695
#        214920
#
# Disc length: 3196 seconds
#
# Revision: 3
# Processed by: cddbd v1.5.2PL0 Copyright (c) Steve Scherf et al.
# Submitted via: ExactAudioCopy v0.95b4
#
DISCID=780c7a08
DTITLE=The Alexander String Quartet - Debuddy and Ravel string Quartet
DTITLE=s
DYEAR=1987
DGENRE=Classical
TTITLE0=Debussy String Quartet in G minor, op. 10 - Anime et tres deci
TTITLE0=de
TTITLE1=Debussy String Quartet in G minor, op. 10 - Assez vif et bien 
TTITLE1=rythme
TTITLE2=Debussy String Quartet in G minor, op. 10 - Andantino doucemen
TTITLE2=t expressif
TTITLE3=Debussy String Quartet in G minor, op. 10 - Tres modere
TTITLE4=Ravel String Quartet in F major - Allegro moderato,Tres doux
TTITLE5=Ravel String Quartet in F major - Assex vif, Tres rythme
TTITLE6=Ravel String Quartet in F major - Tres lent
TTITLE7=Ravel String Quartet in F major - Vif et agite
EXTD=YEAR: 1987
EXTT0=
EXTT1=
EXTT2=
EXTT3=
EXTT4=
EXTT5=
EXTT6=
EXTT7=
PLAYORDER=
